<?xml version="1.0" encoding="UTF-8"?>
<!-- Generator: Adobe Illustrator 16.0.3, SVG Export Plug-In . SVG Version: 6.00 Build 0)  -->
<!DOCTYPE svg PUBLIC "-//W3C//DTD SVG 1.1//EN" "http://www.w3.org/Graphics/SVG/1.1/DTD/svg11.dtd">
<svg version="1.1" id="Ebene_1" xmlns="http://www.w3.org/2000/svg" xmlns:xlink="http://www.w3.org/1999/xlink" x="0px" y="0px" width="185" height="32" viewBox="0 0 185 32" xml:space="preserve">
<g>
	<rect x="15.753" fill="#E20613" width="2.991" height="31.506"/>
	<rect x="37.888" fill="#E20613" width="2.99" height="31.506"/>
	<rect x="22.135" y="14.258" fill="#1D1D1B" width="12.362" height="2.99"/>
	<rect y="14.258" fill="#1D1D1B" width="12.363" height="2.99"/>
	
		<rect x="7.911" y="1.719" transform="matrix(-0.7069 0.7073 -0.7073 -0.7069 21.643 6.8311)" fill="#1D1D1B" width="2.991" height="12.361"/>
	
		<rect x="7.919" y="17.358" transform="matrix(0.7069 0.7073 -0.7073 0.7069 19.4086 0.2397)" fill="#1D1D1B" width="2.992" height="12.365"/>
	<path fill="#1D1D1B" d="M52.239,13.128c-3.669,0-5.378-1.816-5.378-5.415V0h2.279v7.642c0,2.19,0.658,3.812,3.151,3.812   c2.477,0,3.153-1.691,3.153-3.865V0h2.209v7.768C57.655,11.311,55.801,13.128,52.239,13.128z"/>
	<path fill="#1D1D1B" d="M65.854,12.878v-4.88c0-1.425-0.124-2.76-1.87-2.76c-1.906,0-2.208,1.922-2.208,3.294v4.346H59.71v-7   c0-0.66-0.036-1.318-0.054-1.978h2.049l0.036,1.354c0.748-0.998,1.638-1.479,2.938-1.479c2.279,0,3.242,1.248,3.242,3.42v5.682   L65.854,12.878L65.854,12.878z"/>
	<path fill="#1D1D1B" d="M70.165,1.835V0h2.208v1.835H70.165z M70.236,12.878V3.883h2.066v8.995H70.236z"/>
	<path fill="#1D1D1B" d="M79.069,12.878h-2.155L73.21,3.901h2.227l2.67,7.089l2.619-7.089h2.014L79.069,12.878z"/>
	<path fill="#1D1D1B" d="M84.828,8.799v0.144c0,1.497,0.766,2.832,2.403,2.832c1.158,0,1.941-0.677,2.102-1.853h1.995   c-0.338,2.228-2.101,3.153-4.167,3.153c-2.867,0-4.363-1.799-4.363-4.542c0-2.814,1.479-4.844,4.471-4.844   c3.207,0,4.097,2.314,4.097,5.11L84.828,8.799L84.828,8.799z M87.232,5.006c-1.479,0-2.228,1.176-2.352,2.528h4.472   C89.352,6.199,88.709,5.006,87.232,5.006z"/>
	<path fill="#1D1D1B" d="M97.49,5.646c-1.763,0-2.387,0.998-2.387,2.653v4.578h-2.066c0,0,0.036-4.222,0-6.322   c0,0-0.036-1.745-0.053-2.654h2.013l0.054,1.479c0.604-1.051,1.494-1.549,2.742-1.549c0.143,0,0.305,0.019,0.481,0.035v1.853   C97.988,5.684,97.74,5.646,97.49,5.646z"/>
	<path fill="#1D1D1B" d="M102.442,13.091c-1.977,0-3.688-0.748-3.757-3.026h2.064c0.055,1.156,0.643,1.744,1.782,1.744   c0.837,0,1.764-0.444,1.764-1.37c0-0.535-0.319-0.855-0.818-1.087c-0.252-0.107-0.535-0.196-0.855-0.284   c-0.321-0.09-0.642-0.162-0.979-0.25c-1.335-0.339-2.724-0.837-2.724-2.512c0-1.978,2.082-2.637,3.721-2.637   c1.87,0,3.403,0.73,3.491,2.832h-2.03c-0.034-1.067-0.553-1.55-1.586-1.55c-0.729,0-1.619,0.338-1.619,1.159   c0,0.498,0.338,0.783,0.837,1.015c0.249,0.106,0.535,0.196,0.854,0.285s0.677,0.16,1.015,0.25c1.371,0.356,2.762,0.872,2.762,2.546   C106.361,12.397,104.276,13.091,102.442,13.091z"/>
	<path fill="#1D1D1B" d="M108.019,1.835V0h2.208v1.835H108.019z M108.087,12.878V3.883h2.066v8.995H108.087z"/>
	<path fill="#1D1D1B" d="M115.569,12.985c-1.604,0-2.512-0.518-2.512-2.228V5.289h-1.729V3.883h1.729V2.262l2.065-0.838v2.458h2.048   v1.406h-2.048v4.703c0,1.033,0.09,1.495,1.229,1.495c0.284,0,0.532-0.07,0.855-0.088v1.46   C116.637,12.933,116.104,12.985,115.569,12.985z"/>
	<path fill="#1D1D1B" d="M124.205,12.878c-0.068-0.427-0.104-0.838-0.142-1.229c-0.729,1.051-1.692,1.426-2.955,1.426   c-1.709,0-3.171-0.873-3.171-2.726c0-3.064,3.847-3.027,6.02-3.027c0-0.162,0-0.303,0-0.463c0-1.229-0.409-1.96-1.728-1.96   c-1.054,0-1.567,0.464-1.638,1.531h-1.996c0.019-2.118,1.798-2.761,3.579-2.761c2.39,0,3.795,0.767,3.795,3.419v2.654   c0,1.034,0.054,2.065,0.176,3.135H124.205z M119.572,1.8V0h2.011v1.8H119.572z M123.246,8.424c-1.266,0-3.261,0.215-3.261,1.835   c0,0.963,0.839,1.515,1.743,1.515c1.978,0,2.249-1.709,2.249-3.331C123.706,8.424,123.478,8.424,123.246,8.424z M123.124,1.8V0   h2.013v1.8H123.124z"/>
	<path fill="#1D1D1B" d="M131.208,12.985c-1.604,0-2.513-0.518-2.513-2.228V5.289h-1.729V3.883h1.729V2.262l2.064-0.838v2.458h2.049   v1.406h-2.049v4.703c0,1.033,0.09,1.495,1.229,1.495c0.287,0,0.536-0.07,0.855-0.088v1.46   C132.276,12.933,131.74,12.985,131.208,12.985z"/>
	<path fill="#1D1D1B" d="M137.385,13.091c-1.975,0-3.687-0.748-3.755-3.026h2.063c0.054,1.156,0.642,1.744,1.782,1.744   c0.835,0,1.765-0.444,1.765-1.37c0-0.535-0.322-0.855-0.822-1.087c-0.247-0.107-0.531-0.196-0.854-0.284   c-0.32-0.09-0.642-0.162-0.979-0.25c-1.335-0.339-2.726-0.837-2.726-2.512c0-1.978,2.083-2.637,3.723-2.637   c1.87,0,3.4,0.73,3.489,2.832h-2.029c-0.037-1.067-0.553-1.55-1.586-1.55c-0.729,0-1.62,0.338-1.62,1.159   c0,0.498,0.341,0.783,0.839,1.015c0.247,0.106,0.532,0.196,0.854,0.285c0.32,0.089,0.677,0.16,1.017,0.25   c1.371,0.356,2.761,0.872,2.761,2.546C141.307,12.397,139.222,13.091,137.385,13.091z"/>
	<path fill="#1D1D1B" d="M146.217,13.091c-1.979,0-3.688-0.748-3.759-3.026h2.067c0.053,1.156,0.64,1.744,1.777,1.744   c0.842,0,1.767-0.444,1.767-1.37c0-0.535-0.32-0.855-0.82-1.087c-0.249-0.107-0.534-0.196-0.854-0.284   c-0.322-0.09-0.643-0.162-0.981-0.25c-1.334-0.339-2.722-0.837-2.722-2.512c0-1.978,2.084-2.637,3.721-2.637   c1.869,0,3.4,0.73,3.49,2.832h-2.029c-0.036-1.067-0.553-1.55-1.584-1.55c-0.731,0-1.622,0.338-1.622,1.159   c0,0.498,0.337,0.783,0.837,1.015c0.249,0.106,0.533,0.196,0.854,0.285c0.32,0.089,0.676,0.16,1.017,0.25   c1.371,0.356,2.761,0.872,2.761,2.546C150.135,12.397,148.053,13.091,146.217,13.091z"/>
	<path fill="#1D1D1B" d="M156.549,13.057c-1.249,0-2.05-0.428-2.779-1.39v4.594h-2.065V6.288c0-0.783-0.02-1.567-0.072-2.387h2.031   l0.054,1.424c0.692-1.085,1.674-1.62,2.993-1.62c2.671,0,3.845,2.155,3.845,4.542C160.555,10.688,159.29,13.057,156.549,13.057z    M156.154,5.077c-1.832,0-2.42,1.781-2.42,3.348c0,1.479,0.479,3.278,2.262,3.278c1.87,0,2.439-1.764,2.439-3.349   C158.436,6.876,157.92,5.077,156.154,5.077z"/>
	<path fill="#1D1D1B" d="M162.176,1.835V0h2.21v1.835H162.176z M162.246,12.878V3.883h2.065v8.995H162.246z"/>
	<path fill="#1D1D1B" d="M169.727,12.985c-1.602,0-2.51-0.518-2.51-2.228V5.289h-1.729V3.883h1.729V2.262l2.065-0.838v2.458h2.048   v1.406h-2.048v4.703c0,1.033,0.09,1.495,1.229,1.495c0.283,0,0.534-0.07,0.854-0.088v1.46   C170.795,12.933,170.263,12.985,169.727,12.985z"/>
	<path fill="#1D1D1B" d="M178.373,12.878c-0.067-0.427-0.104-0.838-0.142-1.229c-0.732,1.051-1.69,1.426-2.955,1.426   c-1.711,0-3.171-0.873-3.171-2.726c0-3.064,3.847-3.027,6.02-3.027c0-0.162,0-0.303,0-0.463c0-1.229-0.408-1.96-1.727-1.96   c-1.05,0-1.567,0.464-1.639,1.531h-1.994c0.017-2.118,1.799-2.761,3.578-2.761c2.386,0,3.795,0.767,3.795,3.419v2.654   c0,1.034,0.054,2.065,0.177,3.135H178.373z M177.412,8.424c-1.263,0-3.259,0.215-3.259,1.835c0,0.963,0.84,1.515,1.744,1.515   c1.979,0,2.245-1.709,2.245-3.331C177.876,8.424,177.647,8.424,177.412,8.424z"/>
	<path fill="#1D1D1B" d="M182.188,12.878V0h2.064v12.878H182.188z"/>
	<path fill="#1D1D1B" d="M51.669,31.505H46.86V18.628h4.879c2.155,0,4.293,0.659,4.293,3.241c0,1.584-0.944,2.511-2.386,2.92   c1.69,0.303,2.866,1.283,2.866,3.118C56.514,30.757,53.985,31.505,51.669,31.505z M51.402,20.249h-2.386v3.865h2.208   c1.371,0,2.582-0.445,2.582-1.995C53.806,20.712,52.666,20.249,51.402,20.249z M51.51,25.646h-2.493v4.238h2.119   c1.53,0,3.116-0.249,3.116-2.102C54.252,26.073,53.023,25.646,51.51,25.646z"/>
	<path fill="#1D1D1B" d="M63.888,31.505c-0.071-0.428-0.107-0.837-0.143-1.229c-0.729,1.051-1.692,1.425-2.956,1.425   c-1.711,0-3.171-0.873-3.171-2.725c0-3.063,3.847-3.028,6.021-3.028c0-0.16,0-0.302,0-0.462c0-1.229-0.41-1.959-1.729-1.959   c-1.051,0-1.567,0.463-1.638,1.532h-1.996c0.019-2.119,1.798-2.761,3.58-2.761c2.388,0,3.794,0.767,3.794,3.419v2.654   c0,1.033,0.053,2.066,0.178,3.135h-1.941V31.505z M62.926,27.052c-1.265,0-3.259,0.216-3.259,1.834   c0,0.964,0.836,1.516,1.745,1.516c1.978,0,2.245-1.709,2.245-3.331C63.389,27.052,63.157,27.052,62.926,27.052z"/>
	<path fill="#1D1D1B" d="M70.78,31.718c-1.977,0-3.687-0.747-3.758-3.025h2.064c0.055,1.158,0.643,1.745,1.781,1.745   c0.838,0,1.764-0.445,1.764-1.372c0-0.534-0.32-0.854-0.818-1.086c-0.249-0.106-0.534-0.196-0.855-0.285   c-0.319-0.088-0.641-0.16-0.979-0.249c-1.336-0.339-2.727-0.837-2.727-2.511c0-1.979,2.084-2.637,3.725-2.637   c1.87,0,3.4,0.73,3.489,2.832h-2.029c-0.036-1.067-0.551-1.55-1.586-1.55c-0.73,0-1.62,0.339-1.62,1.158   c0,0.497,0.338,0.784,0.837,1.015c0.249,0.107,0.534,0.196,0.854,0.285s0.677,0.16,1.017,0.25c1.37,0.357,2.76,0.873,2.76,2.546   C74.699,31.025,72.614,31.718,70.78,31.718z"/>
	<path fill="#1D1D1B" d="M77.816,27.427v0.143c0,1.496,0.766,2.832,2.405,2.832c1.156,0,1.94-0.677,2.101-1.854h1.995   c-0.337,2.228-2.101,3.153-4.168,3.153c-2.866,0-4.363-1.798-4.363-4.542c0-2.814,1.479-4.844,4.472-4.844   c3.206,0,4.097,2.314,4.097,5.111H77.816L77.816,27.427z M80.221,23.633c-1.479,0-2.228,1.176-2.353,2.529h4.471   C82.339,24.827,81.698,23.633,80.221,23.633z"/>
	<path fill="#1D1D1B" d="M86.026,31.505V18.628h2.065v12.877H86.026z"/>
</g>
</svg>